# xmcd
#
# Track frame offsets:
# 150
# 21264
# 60982
# 77152
# 99454
# 134329
# 158587
# 194959
# 223144
# 249388
# 265304
# 300129
#
# Disc length: 4396 seconds
#
#
# Revision: 0
# Processed by: cddbd v1.5.1PL2 Copyright (c) Steve Scherf et al.
# Submitted via: FreeRIP 2.945 
#
DISCID=a0112a0c
DTITLE=David Clayton Thomas - In Concert - A Musical Biography
DYEAR=2005
DGENRE=Blues
TTITLE0=And When I Die
TTITLE1=Self Centred Woman
TTITLE2=Go Down Gamblin
TTITLE3=Me And Amaretto
TTITLE4=Lucretia MacEvil
TTITLE5=Wild Women And Po Boys
TTITLE6=God Bless The Child
TTITLE7=Gimme That Wine
TTITLE8=Dont Explain
TTITLE9=Spinning Wheel
TTITLE10=(Youve Made Me) So Very Happy Variations On A Theme
TTITLE11=Youre The One
EXTD=
EXTT0=
EXTT1=
EXTT2=
EXTT3=
EXTT4=
EXTT5=
EXTT6=
EXTT7=
EXTT8=
EXTT9=
EXTT10=
EXTT11=
PLAYORDER=
